<?xml version="1.0" encoding="utf-8"?>
<!-- Generator: Adobe Illustrator 16.0.0, SVG Export Plug-In . SVG Version: 6.00 Build 0)  -->
<!DOCTYPE svg PUBLIC "-//W3C//DTD SVG 1.1//EN" "http://www.w3.org/Graphics/SVG/1.1/DTD/svg11.dtd">
<svg version="1.1" xmlns="http://www.w3.org/2000/svg" xmlns:xlink="http://www.w3.org/1999/xlink" x="0px" y="0px" width="32px"
	 height="32px" viewBox="0 0 32 32" enable-background="new 0 0 32 32" xml:space="preserve">
<g id="Layer_3" display="none">
	<rect display="inline" width="32" height="32"/>
</g>
<g id="Layer_2">
	<radialGradient id="SVGID_1_" cx="16" cy="16" r="16" gradientUnits="userSpaceOnUse">
		<stop  offset="0" style="stop-color:#FFFFFF"/>
		<stop  offset="0.9104" style="stop-color:#FFFFFF;stop-opacity:0.0896"/>
		<stop  offset="1" style="stop-color:#FFFFFF;stop-opacity:0"/>
	</radialGradient>
	<path opacity="0.5" fill="url(#SVGID_1_)" d="M32,15.17C32,6.792,25.207,0,16.83,0h-1.66C6.792,0,0,6.792,0,15.17v1.66
		C0,25.207,6.792,32,15.17,32h1.66C25.207,32,32,25.207,32,16.83V15.17z"/>
</g>
<g id="Layer_1">
	<g>
		<path fill="#FF8200" d="M10.796,26.037h1.164l0.416-0.832c-0.397-0.023-0.773-0.053-1.12-0.088L10.796,26.037z"/>
		<path fill="#FF8200" d="M20.105,26.037h1.163l-0.459-0.92c-0.347,0.035-0.722,0.064-1.12,0.088L20.105,26.037z"/>
	</g>
	<path fill="#FF8200" d="M9.632,23.127h12.799v1.455c-2.326,0.582-10.472,0.582-12.799,0V23.127z"/>
	<path fill="#FF8200" d="M21.637,8.381c-0.042-0.057-0.135-0.104-0.207-0.104h-4.602l0.578-1.732h0.371
		c0.504,0,1.029,0.258,1.034,0.26c0.042,0.021,0.086,0.03,0.13,0.03c0.106,0,0.209-0.059,0.26-0.161
		c0.072-0.144,0.014-0.318-0.129-0.39c-0.027-0.013-0.651-0.322-1.295-0.322h-3.491c-0.643,0-1.267,0.309-1.293,0.322
		c-0.144,0.072-0.202,0.246-0.13,0.39c0.071,0.144,0.246,0.202,0.39,0.131c0.005-0.002,0.531-0.26,1.034-0.26h0.373l0.577,1.732
		h-4.602c-0.071,0-0.166,0.046-0.21,0.102c0,0-0.792,0.993-0.792,2.808c0,0.214,0,11.347,0,11.347h12.799c0,0,0-10.908,0-11.347
		C22.432,9.441,21.637,8.381,21.637,8.381z M15.272,6.545h1.521l-0.578,1.732H15.85L15.272,6.545z M12.833,9.15h6.4
		c0.321,0,0.582,0.26,0.582,0.582s-0.261,0.582-0.582,0.582h-6.4c-0.321,0-0.582-0.261-0.582-0.582S12.511,9.15,12.833,9.15z
		 M11.378,21.672c-0.321,0-0.582-0.26-0.582-0.58c0-0.322,0.261-0.582,0.582-0.582s0.582,0.26,0.582,0.582
		C11.959,21.412,11.699,21.672,11.378,21.672z M20.688,21.672c-0.322,0-0.582-0.26-0.582-0.58c0-0.322,0.26-0.582,0.582-0.582
		c0.32,0,0.581,0.26,0.581,0.582C21.269,21.412,21.008,21.672,20.688,21.672z M21.269,19.332h-3.491
		c-1.163-0.582-2.327-0.582-3.491,0h-3.491v-7.563c0-0.321,0.261-0.582,0.582-0.582h9.31c0.32,0,0.581,0.261,0.581,0.582V19.332z"/>
</g>
</svg>
